<svg id="Layer_1" data-name="Layer 1" xmlns="http://www.w3.org/2000/svg" width="64" height="64" viewBox="0 0 64 64"><defs><style>.cls-1{fill:#fff;}</style></defs><title>flag</title><g id="flag"><path class="cls-1" d="M29.23,20a15.75,15.75,0,0,0-.53-3.22c-.06-.22-.66.16-.81.13a18.91,18.91,0,0,0,.59,3.44C28.57,20.52,29.07,20.3,29.23,20ZM48,15.23c.09,0,.13-.34.13-.56s-1.38-.57-1.47-.41-.28.59-.19.72A6.53,6.53,0,0,0,48,15.23Zm.75,2.38a9.37,9.37,0,0,0-2.5-.5c-.19.09-.19.75-.19.75s2.38.44,2.5.44S48.73,17.77,48.73,17.61Zm-.56,5c.16-.06.09-.31.06-.53a9.82,9.82,0,0,0-3-.78c-.12.09-.37.56-.28.66A21.75,21.75,0,0,0,48.17,22.58Zm.16,2a29.08,29.08,0,0,0-4-1.41c-.12,0-.37.59-.37.69S48,25.2,48.07,25.2,48.29,24.7,48.32,24.55Zm-1.56,2.38c.16,0,.19-.37.25-.56A17.31,17.31,0,0,0,43.17,25c-.09.06-.41.69-.31.75S46.6,27,46.76,26.92ZM58.89,48.23a11,11,0,0,0-7-5.37c-2.47-.72-2.53-2.22-5.47-3.16s-5,.16-7.59.38-2-1.16-3.78-1.66-5.75.81-5.75.81-.44-4.94-.44-5.12a43.91,43.91,0,0,1,5.75-2A7.69,7.69,0,0,1,38,31.48c1.06,0,8.63-2,11.81-2.94s4.13-1.28,4.22-3.41-1.81-2.72-2.59-4.37.81-1.75,1-4.09-1.16-2.84-2.5-4.09-.59-2.28-.31-3.72-.06-2.31-.84-2.31-3.56.66-8.91,2.56L25.57,14.2a3.17,3.17,0,0,0-.25-.72c-.16-.28-1.94.44-2,.66S25,20.48,26,26.89,27.42,40.2,27.42,40.2a9.84,9.84,0,0,1-1.94.5c-1.06.16-2.25.19-4.69.38s-3.47,2.06-4.84,3-3.34.78-4.66.88a11.28,11.28,0,0,0-5.56,2.72C3.48,49.58,3.51,53,4.32,54.8a3.87,3.87,0,0,0,4,2.44c2,0,17-.12,23.84-.41s23.56.63,24.16.63,3.25-.25,3.63-1S60.45,51.36,58.89,48.23Zm-33-32.31c.22-.09,10.19-3.81,13.78-5s7.66-2.12,7.66-2.12-.37,2.87.53,3.91,2.88,1.91,2.5,3.72-1.62,3.19-.72,4.66,2.44,2.47,2.31,3.63-1.75,1.59-2.44,2-11.44,3.22-13.94,3.66a65.42,65.42,0,0,0-6.91,1.91Zm32,39.34c-.34.28-6.28.25-12.72.06s-14.38-.06-22,.16-14.59.47-15,.34a2,2,0,0,1-1.91-1.41C5.73,53,5.17,49.48,8.42,48c1.49-.7,3.37-1.72,4.81-1.78s2.47.13,4-1,2.44-2.44,4.66-2.78,4.09-.5,4.69-.59,1-.19,1-.19-.06.81.16.91a3.1,3.1,0,0,0,1.66-.16c.31-.22.25-1.53.25-1.53a6.41,6.41,0,0,1,4-.94c1.84.41,2.75,1.81,4.91,1.69s4.75-1.25,7.25-.31S47.6,43.36,49.57,44s5.16.75,6.88,3.88S58.26,55,57.92,55.27ZM48.48,20.17c.16-.09.06-.53,0-.78a8.49,8.49,0,0,0-2.78-.47c-.16.09-.28.63-.19.69A18.84,18.84,0,0,0,48.48,20.17ZM22.6,45.89c.66-1.09.05-2.38-1.53-2.12C19.73,44,19,45.36,19.6,46.2A1.93,1.93,0,0,0,22.6,45.89ZM21.1,44.5c.81-.13,1.11.53.78,1.08a1,1,0,0,1-1.53.16C20,45.31,20.41,44.61,21.1,44.5Zm18.19-.89c1.06.25,2.22-.34,2.13-1s-1.75-.49-2.47-.19S38.23,43.36,39.29,43.61ZM52.6,49c.66,0,2.09-.72,1.31-1.5a4.21,4.21,0,0,0-3.09-.66c-.53.13-.31,1,0,1.31A3.08,3.08,0,0,0,52.6,49Zm-23.94-.37c.19-.28.19-.84-2.41-1a8.6,8.6,0,0,0-5.31,1.22,3.29,3.29,0,0,0-1.78,2.69c.13.25,1.28.44,1.47.06s.28-.87,2.31-1.84,4.59-.19,4.84-.19S28.48,48.86,28.67,48.58Zm-14-.69c-.12,0-.69.59-.59.72a18.35,18.35,0,0,0,2.53,1.13c.16,0,.31-.28.41-.5S14.81,47.89,14.67,47.89Zm-1.81,1.47c-.16,0-.72.44-.69.53s4.13,2.63,4.25,2.66.34-.31.47-.47A29.66,29.66,0,0,0,12.85,49.36Zm-2,.94c-.09,0-.69.34-.69.56a41.78,41.78,0,0,0,4.53,3,.81.81,0,0,0,.47-.41A40,40,0,0,0,10.89,50.3ZM9.07,51.39a2.76,2.76,0,0,0-.91.66,33.69,33.69,0,0,0,3.75,2.69c.13.06.53-.22.75-.37S9.23,51.39,9.07,51.39Zm20.56-5a11.06,11.06,0,0,0-2.91-2.12,3.36,3.36,0,0,0-.66.44s3.13,2,3.25,2.06S29.57,46.61,29.64,46.36Zm2-1.44a15.53,15.53,0,0,0-2.78-1.62c-.22,0-.81.38-.81.38a29.25,29.25,0,0,0,3.13,1.59A.75.75,0,0,0,31.64,44.92Zm2-1.19a18.83,18.83,0,0,0-2.41-1.5c-.22,0-.82.35-.75.44A12.22,12.22,0,0,0,33.29,44,.44.44,0,0,0,33.6,43.73ZM32.23,53.2c-.19-.12-.66.09-1.22,0s-.34-.59-1.28-.84-2.55,1-2.37,1.16a1.66,1.66,0,0,0,.78.53c.41.09.78-.69,1.19-.81s1.31.5,1.78.63a2.81,2.81,0,0,0,1.34-.09C32.57,53.67,32.42,53.33,32.23,53.2Zm20-2.53a1,1,0,0,0-.59.75c0,.25,3.63,1.75,3.78,1.78s.19-.12.28-.41S52.51,50.61,52.2,50.67ZM50.2,52c-.16,0-.81.5-.78.66a22.78,22.78,0,0,0,3.22,1.84c.22,0,1-.06,1.13-.25S50.39,52,50.2,52Zm-8.66-7.53c-2.34-.44-4.81.81-6,.91-2.28.19-4.22,1.88-3.47,4.31s4.38,1.75,5.53,1.91,2.72,2,4.94,2.09a4.49,4.49,0,0,0,4.81-4.5C47.39,46,43.89,44.86,41.54,44.42ZM46,49.73c-.12.66-1.75,1.78-1.84,1.78a33.42,33.42,0,0,0-2.91-2c-.31,0-.87.44-.72.56S43,51.8,42.85,51.89a2.64,2.64,0,0,1-1.31-.12c-.59-.16-2.5-1.69-4.41-1.84s-2.91-.28-3-1.28.78-1.87,2.06-1.87c2.07,0,4.19-1.31,6.81-.47S46.17,49.08,46,49.73ZM43.2,48.33c-.19,0-.69.53-.75.75s1.66,1.16,1.78,1.19a2.16,2.16,0,0,0,.91-.66C45.23,49.42,43.43,48.33,43.2,48.33Z"/></g></svg>