<svg id="Layer_1" data-name="Layer 1" xmlns="http://www.w3.org/2000/svg" width="64" height="64" viewBox="0 0 64 64"><defs><style>.cls-1{fill:#fff;}</style></defs><title>space-cockpit</title><g id="space-cockpit"><path class="cls-1" d="M59.61,29.66C59.11,24.16,57,13.91,53,12.2s-8.25.21-12.37.67a62.82,62.82,0,0,1-13.46,0c-6.08-.5-11.87-2.07-14.62-1-1.33.5-3.67,3.08-4.75,5.08S3.9,28.37,4.11,36.45A29.2,29.2,0,0,0,9.36,52c.83,1,3.67.5,4.83.13s12.42-4.33,18.75-4.37,21.83,4.63,22.13,4.63,2-2,3.54-6.58S60.11,35.16,59.61,29.66ZM52.31,14a7.42,7.42,0,0,1,1.75,2.13c0,.13-7.83,13.63-8.42,15.42a7.43,7.43,0,0,0,.25,4.83c.46,1.17,1.13,3.29,1.13,3.29-.12-.21-3.54-5.17-3.71-6s3.92-10.5,5.46-13.29S52,13.91,52.31,14Zm-36-1.33c2.58.13,8.58,2,16.42,1.88a133.55,133.55,0,0,0,15-1,21.62,21.62,0,0,1,2.83-.12s-4.33,8.79-5.83,11.88a49.39,49.39,0,0,0-2.87,6.42c-.08.67-.12,1.67-.12,1.67A27.11,27.11,0,0,0,37,32.91c-2.37,0-4.08,0-4.08,0S36.15,27,31.73,22.49,22,20.41,20.65,21.16a5.75,5.75,0,0,0-2,2.13s-5.29-9.67-5.33-9.88C13.27,13.41,13.73,12.49,16.31,12.62Zm7.17,17.79c.17.29,1.71,2.87,1.46,2.92a11.78,11.78,0,0,1-1.33,0,7.26,7.26,0,0,0-1-3.37c-1-1.54-3.25-5.75-3.25-5.75A7.42,7.42,0,0,1,24.86,21c3.63-.17,6.63,1.5,7.63,4.92a12.54,12.54,0,0,1-.37,7s-4.58.21-5.12.25l-1,.08A26.48,26.48,0,0,0,24.11,30C23.86,30,23.31,30.12,23.48,30.41ZM11.94,14.16S22.19,32.87,22,33.33a48,48,0,0,1-5,5.29c-.08-.21,2.79-5.54,2.79-5.79a64.88,64.88,0,0,0-5.5-10.08c-2.79-4.08-4-5.37-4-5.75S11.61,14.08,11.94,14.16Zm4.92,20.5a4.6,4.6,0,0,1-.75-2.21,7.42,7.42,0,0,1,.38-2.58,12,12,0,0,1,1.46,2.42C17.86,32.58,16.86,34.66,16.86,34.66Zm-8,12.5a27.54,27.54,0,0,1-3-13c.38-6.5,2.63-14.46,3.67-15.29.15-.12,6.25,9.92,6.25,9.92a6.28,6.28,0,0,0-.54,3.92,10.24,10.24,0,0,0,1.17,3.38S11.36,43.74,10.56,45,9,47.33,8.86,47.16Zm25.21-1.08c-7.46,0-18.12,3.63-19,3.92s-3.25,1-3.58.83-1.17-1-1-1.29,4-5.58,6.63-8.58a79.21,79.21,0,0,1,6.13-6.17c.17,0,4.46-.46,9.83-.46s8.54.67,8.83.83S52.73,49.45,52.44,49.7,41.52,46.12,34.06,46.08ZM57.9,33.87A75.38,75.38,0,0,1,55.77,47.7S51.56,42.79,49.65,40s-3.21-5.5-2.37-7.67c.67-1.75,7.67-14.83,7.88-14.54A32.64,32.64,0,0,1,57.9,33.87ZM12.31,25.7c-.12-.75-1.06-1.62-1.92-1.21a1.58,1.58,0,0,0-.21,2.5C11,27.74,12.44,26.45,12.31,25.7Zm-.92,4.54c-.67.83-.62,2.29.5,2.46a1.33,1.33,0,0,0,1.58-1.62C13.19,30.29,11.81,29.73,11.4,30.24Zm-.08,7.92c0-1-1.52-1.67-2.13-1.17a1.49,1.49,0,0,0,.13,2.58A1.61,1.61,0,0,0,11.31,38.16ZM9.73,32.83c.21-.67-.78-1.36-1.21-1.17-.92.42-.58,1.21-.21,1.58A.89.89,0,0,0,9.73,32.83ZM21.19,17.2c.25-.67-.71-1.09-1-1s-.87.67-.54,1S20.94,17.87,21.19,17.2Zm9,2.38c.33.38,1.29.58,1.54-.08s-.71-1.09-1-1S29.9,19.2,30.23,19.58Zm14-2.92c.25-.67-.71-1.09-1-1s-.87.67-.54,1S44,17.33,44.23,16.66Zm0,3.46c.33.38,1.29.58,1.54-.08s-.71-1.09-1-1S43.94,19.74,44.27,20.12Zm-6,8c.25-.67-.71-1.09-1-1s-.87.67-.54,1S38,28.74,38.27,28.08Zm2.58-1.33c-.37.17-.87.67-.54,1s1.29.58,1.54-.08S41.15,26.62,40.86,26.74Zm14.38,4.08c.25-.67-.71-1.09-1-1s-.87.67-.54,1S55,31.49,55.23,30.83Zm-4-2.46c-.37.17-.87.67-.54,1s1.29.58,1.54-.08S51.56,28.24,51.27,28.37Zm-1,4.58c-.37.17-.87.67-.54,1s1.29.58,1.54-.08S50.56,32.82,50.27,33ZM38.4,30.29c-.37.17-.87.67-.54,1s1.29.58,1.54-.08S38.69,30.16,38.4,30.29Zm-14-12.12c.58.33,1.79.21,1.88-.71s-.75-1.23-1.42-1.12A1,1,0,0,0,24.44,18.16Zm3.83-.68c.69.39,2.11.25,2.21-.83s-.88-1.45-1.67-1.32A1.21,1.21,0,0,0,28.27,17.48ZM29,16c.3,0,.67.09.64.5s-.58.47-.84.32A.46.46,0,0,1,29,16Zm24.71,8.57a1.21,1.21,0,0,0-.54,2.16c.69.39,2.11.25,2.21-.83S54.51,24.49,53.72,24.61Zm0,1.54a.46.46,0,0,1,.21-.82c.3,0,.67.09.64.5S54,26.3,53.72,26.15Zm1.34,12.78c.1-1.08-.88-1.45-1.67-1.32a1.21,1.21,0,0,0-.54,2.16C53.54,40.16,55,40,55.06,38.93Zm-1.67.22a.46.46,0,0,1,.21-.82c.3,0,.67.09.64.5S53.65,39.3,53.39,39.15ZM26.94,32.24a15.74,15.74,0,0,0-1.42-3.08c-.12-.17-.82.12-.75.25s1.29,2.87,1.46,3.08S26.81,32.45,26.94,32.24Zm-.08-2.46s.75,2.5.83,2.62.54,0,.75-.12-.79-2.58-.83-2.71S26.86,29.79,26.86,29.79Zm1.83.92c.58,1.29,2.54,1.13,3.21-.46a1.75,1.75,0,0,0-2-2.46C28.36,28,28.11,29.41,28.69,30.7ZM30,28.38a1.26,1.26,0,1,1-.85,2C28.78,29.49,29,28.52,30,28.38Zm-2.3-2.44c1.41-.08,2-2,.72-3.16a1.75,1.75,0,0,0-3,.95C25.09,25.28,26.32,26,27.73,25.94ZM26,23.85a1.19,1.19,0,0,1,2-.65c.85.81.47,2.1-.49,2.16S25.79,24.91,26,23.85Zm9.39-.32a2.08,2.08,0,0,0,2.13.75S39.9,26,41.11,25s-.75-3.08-.75-3.08a3.15,3.15,0,0,0-.21-2.25,2,2,0,0,0-1.71-1.12s-2.25-2-3.42-.92-.21,3.17-.21,3.17A3.21,3.21,0,0,0,35.44,23.54Zm4.79-.75s.75,1,.33,1.33-1.71-.37-1.71-.37a2.51,2.51,0,0,0,.83-.42A1.58,1.58,0,0,0,40.23,22.79Zm-1-3.25c1.58,1.13-.29,3.08-.58,3.25A3,3,0,0,1,38,23s-1.25,0-2.12-2.33C35.9,20.7,37.61,18.41,39.19,19.54Zm-3.42-1.37a1.15,1.15,0,0,1,1.42.38,7,7,0,0,0-1,.5,2.24,2.24,0,0,0-.79.92S34.86,18.54,35.77,18.16ZM53.48,42.37a3.66,3.66,0,0,0-.42.42,19.6,19.6,0,0,0,2.13,2l.29-.46S53.65,42.24,53.48,42.37Zm.83-1.08c-.21,0-.42.63-.42.63s1.75,1.5,1.88,1.58.29-.25.33-.5S54.52,41.33,54.31,41.29Zm1.92.75a1.7,1.7,0,0,0,.25-.75c0-.25-.71-.75-.83-.75s-.37.5-.37.5ZM31.15,35.2c-4.75,1.83-4.92,6.33-2.83,9.25S38.69,46.2,38.69,41,34.15,34,31.15,35.2Zm-2,8.53c-1.71-2.39-1.57-6.09,2.33-7.6,2.46-1,6.19.41,6.19,4.72S30.84,46.13,29.13,43.73ZM31.65,38a.64.64,0,0,0-.33-.54c-.33-.17-1.17.21-1.87,1.25a2.41,2.41,0,0,0-.54,1.75,2.25,2.25,0,0,0,.5.17,3.3,3.3,0,0,1,.54-1.5A2.73,2.73,0,0,1,31.65,38Zm-.75,1a4.41,4.41,0,0,0-1.17,2.33,2.62,2.62,0,0,0,1.17,2.08c.25.08.54-.21.67-.37s-.08-.12-.46-.42-.62-.75-.42-1.92a1.92,1.92,0,0,1,1-1.42C31.73,39.12,31.08,38.85,30.9,39Zm4.58.38c-.25,0-.29.38-.29.38A2.3,2.3,0,0,1,35.65,42c-.46,1.38-2.67,1.38-2.83,1.38s-.08.54-.08.54a5.85,5.85,0,0,0,1,.08,2.86,2.86,0,0,0,2.67-2A2.11,2.11,0,0,0,35.48,39.33Zm-1.62,2.25a1,1,0,0,0-.12-1.42s.79-2.58.83-2.83-.37-.29-.71-.25S32.94,40,32.94,40c-.54-.08-1.21.75-1,1.38A1.12,1.12,0,0,0,33.86,41.58Zm-12.29-.75a2,2,0,0,0,2.79-2c-.25-1.29-1.47-1.4-2.46-1A1.68,1.68,0,0,0,21.56,40.83Zm.62-2.35c.59-.23,1.3-.17,1.45.59A1.16,1.16,0,0,1,22,40.23,1,1,0,0,1,22.18,38.48Zm19.55,1.45a1.16,1.16,0,0,0,1.65-1.16c-.15-.76-.87-.82-1.45-.59A1,1,0,0,0,41.74,39.93Zm-.56-3.2c-.15-.76-.87-.82-1.45-.59a1,1,0,0,0-.2,1.75A1.16,1.16,0,0,0,41.17,36.74ZM19.34,43.29c-.18-.94-1.07-1-1.79-.73a1.23,1.23,0,0,0-.24,2.16A1.44,1.44,0,0,0,19.34,43.29Zm-1.63.85a.56.56,0,0,1,.11-1c.33-.13.74-.1.82.33A.66.66,0,0,1,17.71,44.14ZM21,42a1.23,1.23,0,0,0-.24,2.16,1.44,1.44,0,0,0,2-1.43C22.66,41.77,21.77,41.69,21,42Zm.16,1.58a.56.56,0,0,1,.11-1c.33-.13.74-.1.82.33A.66.66,0,0,1,21.21,43.56ZM15,46.15a1.23,1.23,0,0,0-.24,2.16,1.44,1.44,0,0,0,2-1.43C16.57,45.93,15.68,45.86,15,46.15Zm.16,1.58a.56.56,0,0,1,.11-1c.33-.13.74-.1.82.33A.66.66,0,0,1,15.13,47.72Zm4-2.54a1.23,1.23,0,0,0-.24,2.16,1.44,1.44,0,0,0,2-1.43C20.74,45,19.85,44.9,19.13,45.19Zm.16,1.58a.56.56,0,0,1,.11-1c.33-.13.74-.1.82.33A.66.66,0,0,1,19.29,46.77ZM23.75,44a1.23,1.23,0,0,0-.24,2.16,1.44,1.44,0,0,0,2-1.43C25.36,43.77,24.48,43.69,23.75,44Zm.16,1.58a.56.56,0,0,1,.11-1c.33-.13.74-.1.82.33A.66.66,0,0,1,23.92,45.56Zm16.73-1.81c0,.33,1.75.25,1.75.25s.08,1.11,0,1.13c-1.17.13-1.25,1,.08,1.33s2.29-.12,2.33-.62-1-.71-1-.71.13-.71.13-.83,2.08.17,2.33.13.42-2,.42-2.29-5.67-.83-6-.83S40.65,43.41,40.65,43.74Zm.83-1.54c.25,0,4.25.29,4.33.58s-.25.92-.25.92-4-.5-4.12-.54S41.23,42.24,41.48,42.2Z"/></g></svg>