<svg id="Layer_1" data-name="Layer 1" xmlns="http://www.w3.org/2000/svg" width="64" height="64" viewBox="0 0 64 64"><defs><style>.cls-1{fill:#fff;}</style></defs><title>atom</title><g id="atom"><path class="cls-1" d="M39.93,18.61c.21.08.63-.58.63-.75s-.92-.71-1.12-1.46.58-1.21.71-1.33-.6-.62-.71-.54a2.28,2.28,0,0,0-.92,1.88A3.6,3.6,0,0,0,39.93,18.61ZM30.59,29.86a2.62,2.62,0,0,0-1.83,1,3.72,3.72,0,0,0-.58,2,1.19,1.19,0,0,0,.79.21c.21,0,.13-1.08.63-1.58s1.25-.62,1.33-.75S30.89,29.83,30.59,29.86Zm-1-2.33c-3.17,1.58-4,3.75-3.92,7.29s8.83,5.88,11-.21C39.17,27.49,31.55,26.52,29.55,27.52Zm4.17,4.67c.13.13,1.5,1.17,1.5,1.42a6,6,0,0,1-.42,1.17,22.19,22.19,0,0,0-2-2c-.17,0-.62.46-.62.46l2.21,2.29-.71.5s-2.21-2.54-2.33-2.54-.58.17-.5.33A28.16,28.16,0,0,1,33,36.52a2.45,2.45,0,0,1-.58.29s-2.21-2.42-2.33-2.42-.79.33-.67.5S31.22,37,31.22,37a4.77,4.77,0,0,1-3.33-1.83c-1.21-1.71-.87-4.71,2.38-6.29,1.26-.61,3.21.25,4.12.88s1,2.88,1,2.88-1.12-1.08-1.29-1S33.59,32.07,33.72,32.19ZM59,19.15c1.21-4.92-.46-6.79-5-6.87a17.67,17.67,0,0,0-8.46,2.33s.08.13-1.29-1.54a5.1,5.1,0,0,0-3.83-1.54,9,9,0,0,0-.87-3.92c-1-2.29-7-5-10.92-2.67s-5.58,9.88-5.75,9.83C13.8,12.4,7.26,14.15,5.51,18.07S7.3,25.28,7.3,25.28a3.88,3.88,0,0,0,.25,4.5c1.75,2.42,5,1.71,5,1.71L15,34.36s-6.83,7-8.58,10-2.87,7.46.21,8.92a7.68,7.68,0,0,0,6.21-.12s3.54,4,6.79,1.92a4.7,4.7,0,0,0,2.08-5.42l1-.46s1.75,9.46,8,10.71,8.54-10.25,8.54-10.25a58.58,58.58,0,0,0,8.5,2.17C53.93,53,56.14,48.07,54.84,42a19,19,0,0,0-6.12-9.87S57.76,24.07,59,19.15ZM12.84,28.9s-1-2-1.21-2-.58.25-.5.42a13,13,0,0,1,1.08,1.92,3,3,0,0,1-.71.38,11.21,11.21,0,0,0-1-1.79c-.17,0-.71.17-.58.33a6.22,6.22,0,0,1,.71,1.58A2.35,2.35,0,0,1,9.09,27.9c-.08-1.17.17-2.29,1.42-2.67,1.45-.44,2.92.58,3,1.54A4.84,4.84,0,0,1,12.84,28.9ZM19.22,53a12.82,12.82,0,0,0-1.33-2c-.21,0-.71.33-.54.5s1.46,1.83,1.33,2-.71.25-.71.25a17.4,17.4,0,0,0-1.5-2.42c-.21,0-.79.08-.67.29a15.54,15.54,0,0,1,1.08,2.29c-.12,0-2-.37-2-2.08s.46-2.62,1.71-3.17,2.54-.21,2.88,1.29A6.29,6.29,0,0,1,19.22,53Zm2-4.92s-.87-1.87-3.79-1.37A6.82,6.82,0,0,0,12.93,50a5.43,5.43,0,0,0-.58,1.83s-3.33,1-4.71-.54-.46-5.37,1.79-8.54a55.15,55.15,0,0,1,6.92-7.25,35.72,35.72,0,0,0,3,2.33c1.38.92,1.92,1.21,1.92,1.21a32.33,32.33,0,0,0,.25,5c.33,1.79.54,3.63.54,3.63Zm-.33-13.87c.13,1.33.17,2.25.17,2.25s-1.33-.87-1.83-1.25a6.81,6.81,0,0,1-1-1.08,10.35,10.35,0,0,1,2.71-2.42A14,14,0,0,0,20.89,34.23Zm.5-10.12C21.14,27.69,21,29,21,29a21.4,21.4,0,0,0-4.33,4A7.36,7.36,0,0,1,14,30.57s2.33-2.79,1-5.37-3.79-1.83-4.62-1.62a6,6,0,0,0-1.67.79s-2.87-3.67-.5-5.92,6.58-2.92,10.21-2.54,4.08,1,4.08,1A52.46,52.46,0,0,0,21.39,24.11ZM39.3,13.36c1.93-.64,5,1,4,4.08a3.31,3.31,0,0,1-5.83,1A3.39,3.39,0,0,1,39.3,13.36Zm2.63,15.38a21.38,21.38,0,0,1,2.63,1.83c1.17.88,1.46,1.17,1.42,1.33a28.44,28.44,0,0,1-3.12,3,15.76,15.76,0,0,1-2.21,1.5s.67-2.83,1-4.54A25.13,25.13,0,0,0,41.93,28.73ZM40,21.61,39.89,25l-5.33-3.46,1.88-1.25a5.75,5.75,0,0,0,1.63,1A8,8,0,0,0,40,21.61ZM28.55,7.4c2.08-1.92,5.13-2.17,7.92-.12s2.21,4.33,2.21,4.33-2.79,1-3.21,3.17a9.2,9.2,0,0,0,.08,3.92L33,20.15a39.39,39.39,0,0,0-4.42-2.75c-2.25-1.17-3.62-1.71-3.62-1.71S26.47,9.32,28.55,7.4ZM23.59,22a26.45,26.45,0,0,1,.83-4.21,22.47,22.47,0,0,1,3.88,1.75,9,9,0,0,1,2.75,1.88s-2.46,1.67-4.54,3.29S23,27.36,23,27.36,23.26,24.61,23.59,22Zm.21,22.21a13.25,13.25,0,0,1,0-2.54l2.63,1.92c1.08.79,1.92,1.38,1.92,1.38s-1.83.92-2.75,1.33a11,11,0,0,1-1.21.5S24,45,23.8,44.19Zm9.83,13c-2.46,1.63-4.79.71-6.37-2.42a22.72,22.72,0,0,1-2.33-6.42,17.78,17.78,0,0,1,2.75-1.17A18.59,18.59,0,0,0,30.09,46,13.12,13.12,0,0,0,34,48.23l3.17,1.21S36.09,55.53,33.64,57.15Zm4-12.17c-.25,1.42-.46,2.17-.46,2.17l-3-1a7.92,7.92,0,0,1-2.08-1.33,26.25,26.25,0,0,0,3.13-1.83c1.54-1,2.88-2,2.88-2S37.93,43.57,37.68,45Zm.75-6.54s-7.62,5.63-8,5.46S23.09,38.69,23,38.48s-.25-8.62,0-8.87,8.46-6,9.71-6.62a73,73,0,0,1,7.17,4.58C39.89,27.86,38.43,38.44,38.43,38.44Zm14.29,4.17c.67,4.75,1.13,6.54-2.21,7s-11-1.87-11-1.87a52.37,52.37,0,0,0,.83-5.5c.13-2,.25-3.37.25-3.37S43.22,37,44.8,35.65s2.5-2.21,2.5-2.21S52.05,37.86,52.72,42.61Zm-5-12a43.22,43.22,0,0,0-3.5-2.75L42,26.4l.38-5.12A7.15,7.15,0,0,0,44.89,19a7.35,7.35,0,0,0,.71-2.5s9-4.46,11.21-1.67-5.37,12.33-6.87,13.79S47.76,30.61,47.76,30.61Z"/></g></svg>