<svg id="Layer_1" data-name="Layer 1" xmlns="http://www.w3.org/2000/svg" width="64" height="64" viewBox="0 0 64 64"><defs><style>.cls-1{fill:#fff;}</style></defs><title>solar-system</title><g id="solar-system"><path class="cls-1" d="M19.5,49.53a11.3,11.3,0,0,0,.25,1.54.43.43,0,0,0,.5.25s0-1.71.08-1.87S19.79,49.37,19.5,49.53ZM41,19.24c.25-.21,0-1.54-.08-1.87s-.81-.17-.75.08,0,1.67,0,1.83S40.79,19.45,41,19.24ZM39.29,25.7A12.37,12.37,0,0,0,41.75,24a1.86,1.86,0,0,0-.71-.83c-.25-.12-2.29,1.75-2.42,1.83A5,5,0,0,0,39.29,25.7Zm-12.62,24a1.94,1.94,0,0,0-.87,2.92c.63,1,3.38,1.29,3.42-.75S27.69,49.36,26.66,49.7Zm-.11,2.36a1,1,0,1,1,1.73-.38C28.26,52.72,26.87,52.57,26.55,52.06Zm20.32-37.4A1.94,1.94,0,0,0,46,17.57c.63,1,3.38,1.29,3.42-.75S47.9,14.32,46.87,14.66ZM46.76,17a1,1,0,1,1,1.73-.38C48.47,17.67,47.08,17.53,46.76,17Zm8.95-8.7a2.37,2.37,0,0,0-3-3,2.46,2.46,0,0,0-1.5,3.75C51.91,10,55.25,10.78,55.7,8.32ZM52.87,6.41a1.61,1.61,0,0,1,2,1,1.38,1.38,0,0,1-2,1.46C51.37,8.24,52,6.82,52.87,6.41ZM32.79,22.62a10.65,10.65,0,0,0,.08-3.08c-.08-.37-.62-.12-1-.12s-.26,3-.17,3.17S32.58,22.74,32.79,22.62ZM51.91,14C45.83,6.57,39.13,4.57,35.2,4.57s-11.08.88-15.12,3.17S10.75,15.37,8.7,19.24A23.88,23.88,0,0,0,6.45,35.78a24.6,24.6,0,0,0,5.42,10.67s-3.5,5.71-.75,8.38a7.74,7.74,0,0,0,9,1.5s3.33,2.83,11,3.08,11.33-1.92,16-6S56.29,44.91,58,36.07,58,21.41,51.91,14ZM20.7,52.7a2.64,2.64,0,0,1-.92,1.25s-1-4-1.33-4.08-.83,0-.83.21S19,54.53,18.79,54.7a4.62,4.62,0,0,1-.62.38s-1.33-4.54-1.58-4.58-.83.38-.71.5,1.54,4.42,1.29,4.46-.67.13-.75,0S15,51.2,14.79,51.2s-1,.33-.87.5,1.21,3.42,1,3.46a3.85,3.85,0,0,1-2.71-3.29A4.9,4.9,0,0,1,14.33,47c1.88-1.17,5-.37,5.88.92S21,51.91,20.7,52.7Zm30-5.17c-5.29,6.54-10.54,8.75-14,9.79s-10.17.17-12.08-.54a7.52,7.52,0,0,1-2.92-1.87s3.65-5.56-1.21-9c-4-2.83-7.08-.33-7.08-.33A20.46,20.46,0,0,1,8.2,34C7.66,27.2,9,21.82,11.58,18.37s7.58-11.75,22.58-12c3.54-.06,8.38,1.25,13.21,5.37s8.42,9.75,8.88,15.75S56,41,50.7,47.53ZM38,12.62C38.7,13,40,12.41,40,11.7s-1.13-2-2.12-1.25A1.28,1.28,0,0,0,38,12.62ZM28.41,22.95a8.82,8.82,0,0,0-1.17-2.67c-.21-.17-.9.12-.92.25a10.49,10.49,0,0,0,1.38,2.83C28,23.53,28.29,23.16,28.41,22.95Zm5,16.63a21.25,21.25,0,0,0,.46,3.5c.08.21.88.17,1,.08a20.81,20.81,0,0,0-.33-3.75C34.45,39.07,33.53,39.42,33.37,39.57Zm10.33-19s1.63-3.62-1.37-5.58-6.08,1.17-6.08,1.17c-4.75-1.25-9.33-.83-13.54,2.38a19.14,19.14,0,0,0-7,14.71c.13,5.42,3.58,10.17,9.58,13.54S39,48.2,43,45.37s6.25-9.62,5.75-16.25S43.7,20.57,43.7,20.57ZM38.91,16A2.75,2.75,0,0,1,42,17c.83,1.29-.42,3.13-.83,3.38s-1.42-.17-1.42-.17S39.5,18.12,39.2,18s-1-.12-.83.08.33,2,.17,1.88a3.29,3.29,0,0,1-1.17-2.17A2,2,0,0,1,38.91,16ZM39,45.37c-4.67,1.88-12.54,1.71-16.83-2.83S16.7,32.45,18.83,27.07s8.33-11.17,16.67-9.46a3.56,3.56,0,0,0,2.33,4.17c3,1,4.63.21,4.63.21S47,24.24,47,30.91,43.66,43.49,39,45.37Zm-9.17-6.12c-.21,0-1.87,3.5-1.42,3.5.21,0,.63.46.88.25a21.17,21.17,0,0,0,1.25-3.33C30.62,39.32,30,39.28,29.83,39.24Zm9.63-3c-.21,0-.84.66-.67.83a18.24,18.24,0,0,0,2.83,2c.29,0,.54-.54.54-.92S39.66,36.28,39.45,36.24Zm1.29-6.13c0,.25-.21.71,0,.88a17.68,17.68,0,0,0,3.88.21.79.79,0,0,0,0-.71C44.5,30.12,40.77,30,40.75,30.12ZM29.16,24.95c-5.58,2.38-5.12,7.83-2,11.63s11.88,1.63,11.92-5.17S31.86,23.8,29.16,24.95Zm-.75,10.34c-2.37-2.84-2.71-6.92,1.47-8.7,2-.86,7.48-.25,7.45,4.83S30.78,38.13,28.41,35.29ZM24.58,37.7c-.21-.12-2.29,2-2.12,2.17s.17.75.5.79,2-2,2.08-2.29S24.79,37.82,24.58,37.7ZM23,29.45c-.08-.29-2.71-.79-2.92-.79,0,0-.46,1-.25,1.17a24.43,24.43,0,0,0,3,.54C23.16,30.37,23.12,29.74,23,29.45Zm1.88-4a1.79,1.79,0,0,0,.33-.79c0-.33-2.33-1-2.33-1-.29.13-.71.71-.67.88A18.76,18.76,0,0,0,24.91,25.49ZM23,33.12a5.41,5.41,0,0,0-2.75.08c-.12.17-.08,1,.08,1.08A12.35,12.35,0,0,0,23.12,34C23.29,33.87,23.12,33.32,23,33.12Z"/></g></svg>