<svg id="Layer_1" data-name="Layer 1" xmlns="http://www.w3.org/2000/svg" width="64" height="64" viewBox="0 0 64 64"><defs><style>.cls-1{fill:#1d1d1b;}.cls-2{fill:#cbe7f5;}.cls-3{fill:#85bfe9;}.cls-4{fill:#e7413e;}.cls-5{fill:#fab900;}.cls-6{fill:#f2910d;}</style></defs><title>rocket-launch</title><g id="rocket-launch"><path class="cls-1" d="M53.16,46.58c-2.46-2-6.62-1.46-6.62-1.46a2.57,2.57,0,0,0-1.67-2.46,7.79,7.79,0,0,0-2.5-.75s-.25-3.37-3.08-3.5A9.32,9.32,0,0,0,34,40.12s.13-1.71-.29-1.92a2.38,2.38,0,0,0-1.21,0s-.87.08-.87,0,.25-1.37,0-1.58a5.8,5.8,0,0,0-1.71-.25L29.7,40.5A8.46,8.46,0,0,0,23.62,38a6,6,0,0,0-5.12,3.54,14,14,0,0,0-.33,1.67,7.27,7.27,0,0,0-3.21.5,5.18,5.18,0,0,0-2.54,2.63A6.84,6.84,0,0,0,12.24,48s-2.29,1-3,2.63a4.06,4.06,0,0,0,1.58,5.33c2.29,1.25,3.17,1.42,4,1.42a28.53,28.53,0,0,0,3.29-.5,6.48,6.48,0,0,0,3.25.63c1.88-.12,3.42-1.54,5-1.5s2.83,1,4.54,1A15.65,15.65,0,0,0,35.16,56a4.32,4.32,0,0,0,3.29,1.21,6.59,6.59,0,0,0,3-.92c.13,0,2.29,1.17,3.71.83a4.74,4.74,0,0,0,2-.92s6.17.71,7.21-1.92S55.62,48.62,53.16,46.58ZM27.66,33.87A13.45,13.45,0,0,0,27.83,37c.13.29.71,0,.92-.17a10.58,10.58,0,0,0,0-3C28.66,33.33,28,33.75,27.66,33.87Zm7-2.21s-.21,3.17-.17,3.37.79.5.92.29a18,18,0,0,0,0-4C35.24,31.08,35,31.41,34.7,31.66ZM25.62,14.21a12,12,0,0,0,.17-2.29A9.46,9.46,0,0,1,27,8.66c.17-.33-.25-.29-.46-.25s-.75.88-1.29,2.42S24.5,13.95,24.7,14,25.49,14.33,25.62,14.21Zm.21,14.5c.13,0,.79-.58,1-.87s.08-.87.08-1.33.79-.5.79-.5l.67,1.5,1.08.13.13,1.17a7.84,7.84,0,0,0-.37,1.38A2.32,2.32,0,0,0,30,32.37c.42.5.79,2.08,1.13,2.17s1.63-1,2.29-2.17.21-3,.33-3,0-1.33,0-1.33a3.92,3.92,0,0,0,.88-.42c.46-.29,1.13-1,1.25-1a8.2,8.2,0,0,1,1,1.83c.08.29.25.21.63.17s2.13-5.54,2.08-6.25-2.17-2.17-2.17-2.17a34.34,34.34,0,0,0,0-4.79c-.21-2.62-1.75-8.58-4.75-8.79S28.08,9.29,27,12.79a20.64,20.64,0,0,0-.62,7.42,25,25,0,0,0-2.87,2c-.21.29-.17.67.38,2.13A35.08,35.08,0,0,0,25.83,28.71Z"/><path class="cls-2" d="M31.62,40c.13,0,.75.21.75.33s0,5.46.92,6.21,1.29.33,1.54.13a5.3,5.3,0,0,1,2.33-.71c1,0,.92,3.13,1.42,3.21s3.38-.25,5,1.33a3.23,3.23,0,0,1,0,4.33c-.5.21-1.62-.5-2-.37s-.79,1-1,1.17a3.82,3.82,0,0,1-2.58.5C36.87,55.83,34,55,34.41,53s1.25-2.12,1.63-2,.71.29.71.08,0-.62-.17-.71a3.27,3.27,0,0,0-1.71,0c-.5.21-2.08,2.17-1.58,3.42a3.77,3.77,0,0,0,1,1.58,7.22,7.22,0,0,1-3.5.67c-2-.12-3.92-1.17-4.87-1S22.78,56.16,22,56.12s-3.17-.17-3.33-2a3,3,0,0,1,2.67-3.33,3.36,3.36,0,0,1,2.21.58c0,.13-.08.42.46.25s1-.54.92-.79-2.5-1.46-1.29-3.21,3.5-1.54,4-1,1,1.13,1.5.88,1.5-1.5,1.92-3.92S31.62,40,31.62,40Z"/><path class="cls-1" d="M25.62,52.16c.34-.17,2,.38,3.08-.54a4.74,4.74,0,0,0,1.42-2.08c.13.5.21.58.13,1a10.3,10.3,0,0,1-.62,1.42s1.67,2.75,1.42,2.92-.25.46-.5.13A19.11,19.11,0,0,0,29,52.54a.92.92,0,0,0-.46.21,12.93,12.93,0,0,1,1,2.21c-.17,0-.42.17-.67,0a18.1,18.1,0,0,1-1.25-2,9.88,9.88,0,0,1-2,0A.39.39,0,0,1,25.62,52.16Z"/><path class="cls-1" d="M30.33,51.79l.46-.62s1.58,2.25,1.46,2.54-.08.38-.25.38A19.87,19.87,0,0,1,30.33,51.79Z"/><path class="cls-1" d="M31,50.29c.08-.17.33-.62.33-.62s1.5,1.92,1.46,2.29-.12.67-.29.54S31,50.29,31,50.29Z"/><path class="cls-1" d="M31.87,49s.25-.75.42-.75,1.25,1.38,1.17,1.63a2.46,2.46,0,0,1-.25.5Z"/><path class="cls-3" d="M34.16,41.12a9,9,0,0,1,4-1.67,3.4,3.4,0,0,1,3.13,1.33c.21.42.38,1.13.25,1.21s-.79,0-1.17.13a.71.71,0,0,0-.46.33s-.54-1.71-.79-1.75a.73.73,0,0,0-.5.17,13,13,0,0,1,.79,2c-.08.13-.37.92-.46.71s-1.21-2.54-1.5-2.5-.71.21-.62.42a20.86,20.86,0,0,0,2.42,3.38c.33.08.5-.5.5-.5A2.19,2.19,0,0,1,41.41,43c1.42-.37,3.21,0,3.83,1.33s.21,2.58.42,2.75.71.38.79.25a10.87,10.87,0,0,0,.25-1.37s3.88-.46,5.67,1.38a6.28,6.28,0,0,1,1.42,5.58,5.92,5.92,0,0,1-.62,1.5A31.86,31.86,0,0,0,50,51.21c-.25,0-.62.42-.46.58s3,3,2.75,3-.5.21-.62.17S49,52,48.87,52.12s-.67.33-.46.5,2.38,2.58,2.38,2.58l-1.12-.08s-1.83-2.21-2-2.25-.79.17-.62.33,1.83,2,1.46,2.17-1.42-.33-1.71-.29-.54.42-.75.54a2.39,2.39,0,0,1-1,.33,2.44,2.44,0,0,1-.58-.08s2.63-2.37,1.5-4.71a7.42,7.42,0,0,0-3.17-3.29s-1.17-2-1.5-2.12-.71,0-.58.08a10.58,10.58,0,0,1,1.13,1.88,5.81,5.81,0,0,0-1.12-.37h-.58s-1-2.17-1.83-2.46l-1-.37S36,41.66,35.87,41.62s-.62.17-.54.33l1.25,2.46L36,44.33s-1-2-1.21-2-.54.42-.42.54a5.56,5.56,0,0,1,.75,1.63c-.12,0-.87.71-.92.42S33.49,42.25,34.16,41.12Z"/><path class="cls-1" d="M42.49,45.46c.17-.12.42-.5.54-.29s1.25,2.29,1,2.38-.79.25-.87,0S42.49,45.46,42.49,45.46Z"/><path class="cls-1" d="M44,45.29s.54-.37.63-.08.71,1.75.54,1.88a.58.58,0,0,1-.71-.17C44.33,46.71,44,45.29,44,45.29Z"/><path class="cls-1" d="M50.78,50.33c.13-.12.38-.58.5-.54S53.2,51.71,53.16,52s-.08.46-.21.46S50.78,50.33,50.78,50.33Z"/><path class="cls-3" d="M29.24,41.16a7.45,7.45,0,0,0-4.08-2c-2.12-.08-4,.33-4.71,1.25a10.46,10.46,0,0,0-1.33,2.67s.67,0,1.71,1.46,1.63,2.17,1.63,2.17l.46-.46S21.62,44,21.78,43.75a.45.45,0,0,1,.5-.29c.21,0,1.08,2.42,1.21,2.33s.33-.17.38-.29-1-2.37-.87-2.54.42-.42.63-.25a19.11,19.11,0,0,1,1.08,2.42s.71-.21.63-.33a12.83,12.83,0,0,1-.87-2.71A.51.51,0,0,1,25,42c.13.08,1,2.71,1,2.71s1,.13,1,0a22.4,22.4,0,0,1-1.08-3.21c.13-.08.88-.25,1-.08s.92,3.25,1.08,3.33.83.79.83.38-1.17-3.83-1.17-3.83a.33.33,0,0,1,.5,0c.21.29.92,2.33,1,2.13S29.24,41.16,29.24,41.16Z"/><path class="cls-3" d="M22,47.33s-1.67-2.67-3.33-3a6.67,6.67,0,0,0-4.58,1.21,3.11,3.11,0,0,0-1,1.79,5.14,5.14,0,0,1,3.13.17c1.79.63,2.08,1.63,2.08,1.63l-.87.33a4,4,0,0,0-2.67-1.08,4.92,4.92,0,0,0-4.54,3.13,3.48,3.48,0,0,0,2.38,4.25,14.42,14.42,0,0,0,4.58.13S15.41,53,17.7,51A5.78,5.78,0,0,1,22,49.37S21.33,47.91,22,47.33Z"/><path class="cls-4" d="M31.49,8.16c1.06-.25,3.38.79,3.92,4.87s.21,8-.5,9.92S33.28,26.25,33,26.25a18.08,18.08,0,0,1-3-.12,19.69,19.69,0,0,1-1.92-9C28.24,12.46,30.08,8.5,31.49,8.16Z"/><path class="cls-1" d="M31.16,9.66a.34.34,0,0,1,.58.33c-.08.5-.58,2.38-.79,2.33s-.46-.08-.5-.21A15.92,15.92,0,0,1,31.16,9.66Z"/><path class="cls-5" d="M24.78,22.87c.05-.26,1.54-1.25,1.63-1a20.51,20.51,0,0,1,.67,3C27,25,25.91,26.25,25.74,26A18.33,18.33,0,0,1,24.78,22.87Z"/><path class="cls-5" d="M37.33,21.37a24.64,24.64,0,0,1-.79,2.75c-.42,1.08-.46,1.21-.46,1.21s.75,1.29.88,1.17,1-2.21,1.25-3a5.66,5.66,0,0,0,.33-1Z"/><path class="cls-5" d="M30.41,27.87a16.12,16.12,0,0,1,2.46,0c0,.17,0,1.13-.17,1.08s-2.29-.17-2.29-.17Z"/><path class="cls-6" d="M30.66,29.5c.48-.44,2.42-.37,2.08,1a4.77,4.77,0,0,1-1.33,2.29,5.56,5.56,0,0,0-.67-1.46A1.44,1.44,0,0,1,30.66,29.5Z"/><path class="cls-1" d="M31,13.54a2.29,2.29,0,0,1,3,2c.17,1.75-1.71,4.25-3.54,2.75S28.7,14.5,31,13.54Z"/><path class="cls-5" d="M31.27,14.69a1.26,1.26,0,0,1,1.67,1.12c.09,1-.94,2.34-1.95,1.51A1.45,1.45,0,0,1,31.27,14.69Z"/><path class="cls-1" d="M29.64,19.16c.27-.23.71-.15.83.44s-.67.63-.87.42A.58.58,0,0,1,29.64,19.16Z"/><path class="cls-1" d="M31.66,19.48c.27-.23.71-.15.83.44s-.67.63-.87.42A.58.58,0,0,1,31.66,19.48Z"/><path class="cls-1" d="M33.24,18.75c.27-.23.71-.15.83.44s-.67.63-.87.42A.58.58,0,0,1,33.24,18.75Z"/><path class="cls-1" d="M34.45,17.12c.27-.23.71-.15.83.44s-.67.63-.87.42A.58.58,0,0,1,34.45,17.12Z"/><path class="cls-1" d="M32.49,21.12a3.61,3.61,0,0,1,1.4.88c0,.15,0,.54-.15.52a9.58,9.58,0,0,1-1.58-.83C32.1,21.56,32.41,21.16,32.49,21.12Z"/><path class="cls-1" d="M31.58,22.33c.1,0,1.83,1.19,1.81,1.46s-.08.46-.29.44A10,10,0,0,1,31,22.81C31,22.66,31.58,22.33,31.58,22.33Z"/><path class="cls-1" d="M30.49,23.44c.07,0,2.21,1.46,2.1,1.63s-.27.4-.48.42a8,8,0,0,1-2-1.65C30.1,23.66,30.35,23.52,30.49,23.44Z"/></g></svg>